<svg xmlns="http://www.w3.org/2000/svg" width="128" height="64" viewBox="0 0 128 64">
  <defs>
    <linearGradient id="base-fill" x1="0" y1="0" x2="0" y2="1">
      <stop offset="0" stop-color="#12323a"/>
      <stop offset="1" stop-color="#071820"/>
    </linearGradient>
    <linearGradient id="selected-fill" x1="0" y1="0" x2="0" y2="1">
      <stop offset="0" stop-color="#205452"/>
      <stop offset="1" stop-color="#102c35"/>
    </linearGradient>
  </defs>

  <g id="base-panel">
    <rect x="1" y="1" width="62" height="62" rx="7" fill="url(#base-fill)" stroke="#397b78" stroke-width="2"/>
    <rect x="7" y="7" width="50" height="50" rx="3" fill="none" stroke="#a7d4b9" stroke-width="1" opacity="0.78"/>
    <path d="M8 17V8h9 M47 8h9v9 M8 47v9h9 M47 56h9v-9" fill="none" stroke="#5ab49b" stroke-width="2" stroke-linecap="square"/>
    <path d="M8 8l2 4 4 2-4 2-2 4-2-4-4-2 4-2z M56 8l2 4 4 2-4 2-2 4-2-4-4-2 4-2z M8 56l2-4 4-2-4-2-2-4-2 4-4 2 4 2z M56 56l2-4 4-2-4-2-2-4-2 4-4 2 4 2z" fill="#edcf86"/>
    <path d="M24 8h16 M24 56h16 M8 24v16 M56 24v16" stroke="#80cbb1" stroke-width="1" opacity="0.8"/>
    <path d="M29 5h6 M29 59h6" stroke="#f0d995" stroke-width="2" stroke-linecap="round"/>
  </g>

  <g id="selected-panel" transform="translate(64 0)">
    <rect x="1" y="1" width="62" height="62" rx="7" fill="url(#selected-fill)" stroke="#e4c878" stroke-width="2"/>
    <rect x="7" y="7" width="50" height="50" rx="3" fill="none" stroke="#c5f0cb" stroke-width="1" opacity="0.92"/>
    <path d="M8 17V8h9 M47 8h9v9 M8 47v9h9 M47 56h9v-9" fill="none" stroke="#8fe3bd" stroke-width="2" stroke-linecap="square"/>
    <path d="M8 8l2 4 4 2-4 2-2 4-2-4-4-2 4-2z M56 8l2 4 4 2-4 2-2 4-2-4-4-2 4-2z M8 56l2-4 4-2-4-2-2-4-2 4-4 2 4 2z M56 56l2-4 4-2-4-2-2-4-2 4-4 2 4 2z" fill="#fff0ac"/>
    <path d="M24 8h16 M24 56h16 M8 24v16 M56 24v16" stroke="#c1f1c7" stroke-width="1" opacity="0.95"/>
    <path d="M29 5h6 M29 59h6" stroke="#fff0ae" stroke-width="2" stroke-linecap="round"/>
  </g>
</svg>
